<mxfile host="app.diagrams.net" modified="2024-02-04T20:00:08.224Z" agent="Mozilla/5.0 (Windows NT 10.0; Win64; x64) AppleWebKit/537.36 (KHTML, like Gecko) Chrome/121.0.0.0 Safari/537.36" etag="ppYxG1ORmKtIKWIDsZun" version="23.1.1" type="github">
  <diagram name="Page-1" id="LEXqoHW4kRuM1DzervlS">
    <mxGraphModel dx="1018" dy="703" grid="1" gridSize="10" guides="1" tooltips="1" connect="1" arrows="1" fold="1" page="1" pageScale="1" pageWidth="850" pageHeight="1100" math="0" shadow="0">
      <root>
        <mxCell id="0" />
        <mxCell id="1" parent="0" />
        <mxCell id="Z2z210VqvgHXxuDRwpZ7-1" value="Start Here&lt;br&gt;Year divisible by 4" style="whiteSpace=wrap;html=1;aspect=fixed;" vertex="1" parent="1">
          <mxGeometry x="160" y="60" width="90" height="90" as="geometry" />
        </mxCell>
        <mxCell id="Z2z210VqvgHXxuDRwpZ7-12" value="" style="edgeStyle=orthogonalEdgeStyle;rounded=0;orthogonalLoop=1;jettySize=auto;html=1;" edge="1" parent="1" source="Z2z210VqvgHXxuDRwpZ7-2" target="Z2z210VqvgHXxuDRwpZ7-11">
          <mxGeometry relative="1" as="geometry" />
        </mxCell>
        <mxCell id="Z2z210VqvgHXxuDRwpZ7-2" value="No" style="rounded=1;whiteSpace=wrap;html=1;" vertex="1" parent="1">
          <mxGeometry x="20" y="210" width="90" height="40" as="geometry" />
        </mxCell>
        <mxCell id="Z2z210VqvgHXxuDRwpZ7-16" value="" style="edgeStyle=orthogonalEdgeStyle;rounded=0;orthogonalLoop=1;jettySize=auto;html=1;" edge="1" parent="1" source="Z2z210VqvgHXxuDRwpZ7-3" target="Z2z210VqvgHXxuDRwpZ7-15">
          <mxGeometry relative="1" as="geometry" />
        </mxCell>
        <mxCell id="Z2z210VqvgHXxuDRwpZ7-18" value="" style="edgeStyle=orthogonalEdgeStyle;rounded=0;orthogonalLoop=1;jettySize=auto;html=1;" edge="1" parent="1" source="Z2z210VqvgHXxuDRwpZ7-3" target="Z2z210VqvgHXxuDRwpZ7-17">
          <mxGeometry relative="1" as="geometry" />
        </mxCell>
        <mxCell id="Z2z210VqvgHXxuDRwpZ7-3" value="Yes&lt;br&gt;Also divisible by 100" style="rounded=1;whiteSpace=wrap;html=1;" vertex="1" parent="1">
          <mxGeometry x="280" y="210" width="90" height="40" as="geometry" />
        </mxCell>
        <mxCell id="Z2z210VqvgHXxuDRwpZ7-11" value="Not Leap Year" style="rounded=1;whiteSpace=wrap;html=1;fillColor=#f8cecc;strokeColor=#b85450;" vertex="1" parent="1">
          <mxGeometry x="20" y="300" width="90" height="40" as="geometry" />
        </mxCell>
        <mxCell id="Z2z210VqvgHXxuDRwpZ7-13" value="" style="endArrow=none;html=1;rounded=0;entryX=0.417;entryY=1.046;entryDx=0;entryDy=0;entryPerimeter=0;" edge="1" parent="1" target="Z2z210VqvgHXxuDRwpZ7-1">
          <mxGeometry width="50" height="50" relative="1" as="geometry">
            <mxPoint x="60" y="210" as="sourcePoint" />
            <mxPoint x="110" y="160" as="targetPoint" />
          </mxGeometry>
        </mxCell>
        <mxCell id="Z2z210VqvgHXxuDRwpZ7-14" value="" style="endArrow=none;html=1;rounded=0;entryX=0.5;entryY=0;entryDx=0;entryDy=0;" edge="1" parent="1" target="Z2z210VqvgHXxuDRwpZ7-3">
          <mxGeometry width="50" height="50" relative="1" as="geometry">
            <mxPoint x="220" y="150" as="sourcePoint" />
            <mxPoint x="270" y="100" as="targetPoint" />
          </mxGeometry>
        </mxCell>
        <mxCell id="Z2z210VqvgHXxuDRwpZ7-23" value="" style="edgeStyle=orthogonalEdgeStyle;rounded=0;orthogonalLoop=1;jettySize=auto;html=1;" edge="1" parent="1" source="Z2z210VqvgHXxuDRwpZ7-15" target="Z2z210VqvgHXxuDRwpZ7-22">
          <mxGeometry relative="1" as="geometry" />
        </mxCell>
        <mxCell id="Z2z210VqvgHXxuDRwpZ7-15" value="Yes" style="rounded=1;whiteSpace=wrap;html=1;" vertex="1" parent="1">
          <mxGeometry x="170" y="300" width="90" height="40" as="geometry" />
        </mxCell>
        <mxCell id="Z2z210VqvgHXxuDRwpZ7-17" value="No" style="rounded=1;whiteSpace=wrap;html=1;" vertex="1" parent="1">
          <mxGeometry x="390" y="300" width="90" height="40" as="geometry" />
        </mxCell>
        <mxCell id="Z2z210VqvgHXxuDRwpZ7-21" value="" style="endArrow=classic;html=1;rounded=0;entryX=0.496;entryY=0;entryDx=0;entryDy=0;entryPerimeter=0;" edge="1" parent="1" source="Z2z210VqvgHXxuDRwpZ7-17" target="Z2z210VqvgHXxuDRwpZ7-32">
          <mxGeometry width="50" height="50" relative="1" as="geometry">
            <mxPoint x="435" y="350" as="sourcePoint" />
            <mxPoint x="434.6400000000001" y="393.68000000000006" as="targetPoint" />
          </mxGeometry>
        </mxCell>
        <mxCell id="Z2z210VqvgHXxuDRwpZ7-25" value="" style="edgeStyle=orthogonalEdgeStyle;rounded=0;orthogonalLoop=1;jettySize=auto;html=1;" edge="1" parent="1" source="Z2z210VqvgHXxuDRwpZ7-22" target="Z2z210VqvgHXxuDRwpZ7-24">
          <mxGeometry relative="1" as="geometry" />
        </mxCell>
        <mxCell id="Z2z210VqvgHXxuDRwpZ7-27" value="" style="edgeStyle=orthogonalEdgeStyle;rounded=0;orthogonalLoop=1;jettySize=auto;html=1;" edge="1" parent="1" source="Z2z210VqvgHXxuDRwpZ7-22" target="Z2z210VqvgHXxuDRwpZ7-26">
          <mxGeometry relative="1" as="geometry" />
        </mxCell>
        <mxCell id="Z2z210VqvgHXxuDRwpZ7-22" value="Also Divisible by 400" style="rounded=1;whiteSpace=wrap;html=1;" vertex="1" parent="1">
          <mxGeometry x="170" y="420" width="90" height="40" as="geometry" />
        </mxCell>
        <mxCell id="Z2z210VqvgHXxuDRwpZ7-29" value="" style="edgeStyle=orthogonalEdgeStyle;rounded=0;orthogonalLoop=1;jettySize=auto;html=1;" edge="1" parent="1" source="Z2z210VqvgHXxuDRwpZ7-24" target="Z2z210VqvgHXxuDRwpZ7-28">
          <mxGeometry relative="1" as="geometry" />
        </mxCell>
        <mxCell id="Z2z210VqvgHXxuDRwpZ7-24" value="No" style="rounded=1;whiteSpace=wrap;html=1;" vertex="1" parent="1">
          <mxGeometry x="60" y="490" width="90" height="40" as="geometry" />
        </mxCell>
        <mxCell id="Z2z210VqvgHXxuDRwpZ7-31" value="" style="edgeStyle=orthogonalEdgeStyle;rounded=0;orthogonalLoop=1;jettySize=auto;html=1;" edge="1" parent="1" source="Z2z210VqvgHXxuDRwpZ7-26" target="Z2z210VqvgHXxuDRwpZ7-30">
          <mxGeometry relative="1" as="geometry" />
        </mxCell>
        <mxCell id="Z2z210VqvgHXxuDRwpZ7-26" value="Yes" style="rounded=1;whiteSpace=wrap;html=1;" vertex="1" parent="1">
          <mxGeometry x="290" y="490" width="90" height="40" as="geometry" />
        </mxCell>
        <mxCell id="Z2z210VqvgHXxuDRwpZ7-28" value="Not Leap Year" style="rounded=1;whiteSpace=wrap;html=1;fillColor=#f8cecc;strokeColor=#b85450;" vertex="1" parent="1">
          <mxGeometry x="60" y="610" width="90" height="40" as="geometry" />
        </mxCell>
        <mxCell id="Z2z210VqvgHXxuDRwpZ7-30" value="Leap Year" style="rounded=1;whiteSpace=wrap;html=1;fillColor=#d5e8d4;strokeColor=#82b366;" vertex="1" parent="1">
          <mxGeometry x="290" y="610" width="90" height="40" as="geometry" />
        </mxCell>
        <mxCell id="Z2z210VqvgHXxuDRwpZ7-32" value="Leap Year" style="rounded=1;whiteSpace=wrap;html=1;fillColor=#d5e8d4;strokeColor=#82b366;" vertex="1" parent="1">
          <mxGeometry x="390" y="400" width="90" height="40" as="geometry" />
        </mxCell>
        <mxCell id="Z2z210VqvgHXxuDRwpZ7-33" value="if year % 4 ===0" style="text;html=1;strokeColor=none;fillColor=none;align=center;verticalAlign=middle;whiteSpace=wrap;rounded=0;" vertex="1" parent="1">
          <mxGeometry x="370" y="200" width="60" height="30" as="geometry" />
        </mxCell>
        <mxCell id="Z2z210VqvgHXxuDRwpZ7-34" value="if year % 100 ===0" style="text;html=1;strokeColor=none;fillColor=none;align=center;verticalAlign=middle;whiteSpace=wrap;rounded=0;" vertex="1" parent="1">
          <mxGeometry x="220" y="260" width="60" height="30" as="geometry" />
        </mxCell>
        <mxCell id="Z2z210VqvgHXxuDRwpZ7-35" value="if year % 400 ===0" style="text;html=1;strokeColor=none;fillColor=none;align=center;verticalAlign=middle;whiteSpace=wrap;rounded=0;" vertex="1" parent="1">
          <mxGeometry x="340" y="450" width="60" height="30" as="geometry" />
        </mxCell>
      </root>
    </mxGraphModel>
  </diagram>
</mxfile>
